<svg xmlns="http://www.w3.org/2000/svg"><symbol id="upload" viewBox="0 0 24 24"><path d="M12 16V3m-5 5 5-5 5 5M4 14v6h16v-6"/></symbol><symbol id="heart" viewBox="0 0 24 24"><path d="M20 5c-3-3-6-1-8 1-2-2-5-4-8-1-4 4 1 9 8 15 7-6 12-11 8-15Z"/></symbol><symbol id="camera" viewBox="0 0 24 24"><path d="M3 7h5l2-3h4l2 3h5v13H3Z"/><circle cx="12" cy="13" r="4"/></symbol><symbol id="check" viewBox="0 0 24 24"><path d="m5 12 4 4L19 6"/></symbol><symbol id="arrow" viewBox="0 0 24 24"><path d="M4 12h16m-6-6 6 6-6 6"/></symbol><symbol id="image" viewBox="0 0 24 24"><rect x="3" y="3" width="18" height="18" rx="2"/><circle cx="8" cy="8" r="1.5"/><path d="m3 18 6-6 4 4 3-3 5 5"/></symbol><symbol id="flag" viewBox="0 0 24 24"><path d="M5 22V3c5-4 9 4 14 0v11c-5 4-9-4-14 0"/></symbol><symbol id="chat" viewBox="0 0 24 24"><path d="M4 3h16v14H9l-5 4Z"/></symbol><symbol id="calendar" viewBox="0 0 24 24"><rect x="3" y="5" width="18" height="16" rx="2"/><path d="M7 2v6m10-6v6M3 11h18m-13 4h1m6 0h1m-8 3h1m6 0h1"/></symbol><symbol id="nfc" viewBox="0 0 24 24"><path d="M6 9a6 6 0 0 1 0 6m4-10a12 12 0 0 1 0 14m4-18a18 18 0 0 1 0 22m4-22a24 24 0 0 1 0 22"/></symbol><symbol id="info" viewBox="0 0 24 24"><circle cx="12" cy="12" r="9"/><path d="M12 11v6m0-10v1"/></symbol><symbol id="close" viewBox="0 0 24 24"><path d="m6 6 12 12M18 6 6 18"/></symbol><symbol id="music" viewBox="0 0 24 24"><path d="M9 18V5l11-2v13M9 9l11-2"/><ellipse cx="6" cy="18" rx="3" ry="2"/><ellipse cx="17" cy="16" rx="3" ry="2"/></symbol></svg>